<?xml version="1.0" encoding="UTF-8" standalone="no"?>
<svg
   xmlns:dc="http://purl.org/dc/elements/1.1/"
   xmlns:cc="http://creativecommons.org/ns#"
   xmlns:rdf="http://www.w3.org/1999/02/22-rdf-syntax-ns#"
   xmlns:svg="http://www.w3.org/2000/svg"
   xmlns="http://www.w3.org/2000/svg"
   xmlns:sodipodi="http://sodipodi.sourceforge.net/DTD/sodipodi-0.dtd"
   xmlns:inkscape="http://www.inkscape.org/namespaces/inkscape"
   id="github"
   viewBox="0 0 118.51797 115.61715"
   version="1.1"
   sodipodi:docname="github-logo.svg"
   width="118.51797"
   height="115.61715"
   inkscape:version="1.0.2 (e86c870879, 2021-01-15)">
  <metadata
     id="metadata12">
    <rdf:RDF>
      <cc:screenshot
         rdf:about="">
        <dc:format>image/svg+xml</dc:format>
        <dc:type
           rdf:resource="http://purl.org/dc/dcmitype/StillImage" />
        <dc:title>github</dc:title>
      </cc:screenshot>
    </rdf:RDF>
  </metadata>
  <sodipodi:namedview
     pagecolor="#ffffff"
     bordercolor="#666666"
     borderopacity="1"
     objecttolerance="10"
     gridtolerance="10"
     guidetolerance="10"
     inkscape:pageopacity="0"
     inkscape:pageshadow="2"
     inkscape:window-width="1920"
     inkscape:window-height="1022"
     id="namedview10"
     showgrid="false"
     fit-margin-top="0"
     fit-margin-left="0"
     fit-margin-right="0"
     fit-margin-bottom="0"
     inkscape:zoom="5.0381358"
     inkscape:cx="50.786027"
     inkscape:cy="59.24137"
     inkscape:window-x="0"
     inkscape:window-y="28"
     inkscape:window-maximized="1"
     inkscape:current-layer="github" />
  <defs
     id="defs4">
    <style
       id="style2">.cls-1{fill:#fff;fill-rule:evenodd;}</style>
  </defs>
  <title
     id="title6">github</title>
  <path
     id="GitHub-2"
     data-name="GitHub"
     class="cls-1"
     d="M 59.258984,0 A 59.27838,59.27838 0 0 0 40.523196,115.51155 c 2.96779,0.54195 4.051679,-1.29034 4.051679,-2.85166 0,-1.56131 0,-5.16137 -0.09032,-10.09048 -16.477687,3.58715 -19.961614,-7.935618 -19.961614,-7.935618 -2.683914,-6.851723 -6.554945,-8.671108 -6.554945,-8.671108 -5.406539,-3.638768 0.387103,-3.638768 0.387103,-3.638768 5.948484,0.412909 9.032405,6.103324 9.032405,6.103324 5.290408,9.032405 13.871192,6.451718 17.251892,4.929112 a 12.593753,12.593753 0 0 1 3.767799,-7.922709 C 35.245691,83.936845 21.400306,78.852891 21.400306,56.129942 A 22.890694,22.890694 0 0 1 27.50363,40.232911 c -0.606461,-1.509702 -2.645204,-7.535607 0.580655,-15.690577 0,0 4.980726,-1.587123 16.297038,6.077517 a 56.052522,56.052522 0 0 1 29.677901,0 c 11.316312,-7.66464 16.284135,-6.077517 16.284135,-6.077517 3.238762,8.15497 1.200019,14.193778 0.593558,15.690577 a 22.87779,22.87779 0 0 1 6.129132,15.935742 c 0,22.774563 -13.85829,27.781095 -27.097214,29.252087 2.129067,1.832288 4.025872,5.445249 4.025872,10.980823 0,7.922717 -0.07742,14.309917 -0.07742,16.258327 0,1.58713 1.070985,3.41941 4.077486,2.85166 A 59.27838,59.27838 0 0 0 59.258984,0 Z"
     style="stroke-width:0.999999" />
</svg>
