<svg id="github" xmlns="http://www.w3.org/2000/svg" viewBox="0 0 120 120"><defs><style>.cls-1{fill:#fff;fill-rule:evenodd;}</style></defs><title>github</title><path id="GitHub-2" data-name="GitHub" class="cls-1" d="M60,15.2a45.94,45.94,0,0,0-14.52,89.52c2.3.42,3.14-1,3.14-2.21s0-4-.07-7.82c-12.77,2.78-15.47-6.15-15.47-6.15C31,83.23,28,81.82,28,81.82,23.81,79,28.3,79,28.3,79c4.61.32,7,4.73,7,4.73,4.1,7,10.75,5,13.37,3.82a9.76,9.76,0,0,1,2.92-6.14c-10.2-1.16-20.93-5.1-20.93-22.71a17.74,17.74,0,0,1,4.73-12.32c-.47-1.17-2.05-5.84.45-12.16,0,0,3.86-1.23,12.63,4.71a43.44,43.44,0,0,1,23,0c8.77-5.94,12.62-4.71,12.62-4.71,2.51,6.32.93,11,.46,12.16A17.73,17.73,0,0,1,89.3,58.73c0,17.65-10.74,21.53-21,22.67,1.65,1.42,3.12,4.22,3.12,8.51,0,6.14-.06,11.09-.06,12.6,0,1.23.83,2.65,3.16,2.21A45.94,45.94,0,0,0,60,15.2Z"/></svg>